<?xml version="1.0" encoding="UTF-8" standalone="no"?>
<svg
   xmlns:dc="http://purl.org/dc/elements/1.1/"
   xmlns:cc="http://creativecommons.org/ns#"
   xmlns:rdf="http://www.w3.org/1999/02/22-rdf-syntax-ns#"
   xmlns:svg="http://www.w3.org/2000/svg"
   xmlns="http://www.w3.org/2000/svg"
   xmlns:sodipodi="http://sodipodi.sourceforge.net/DTD/sodipodi-0.dtd"
   xmlns:inkscape="http://www.inkscape.org/namespaces/inkscape"
   viewBox="0 0 1080 1080"
   version="1.1"
   id="svg46"
   sodipodi:docname="jalapeno_spices_logo.svg"
   inkscape:version="1.0.2 (e86c8708, 2021-01-15)">
  <metadata
     id="metadata50">
    <rdf:RDF>
      <cc:Work
         rdf:about="">
        <dc:format>image/svg+xml</dc:format>
        <dc:type
           rdf:resource="http://purl.org/dc/dcmitype/StillImage" />
      </cc:Work>
    </rdf:RDF>
  </metadata>
  <sodipodi:namedview
     pagecolor="#ffffff"
     bordercolor="#666666"
     borderopacity="1"
     objecttolerance="10"
     gridtolerance="10"
     guidetolerance="10"
     inkscape:pageopacity="0"
     inkscape:pageshadow="2"
     inkscape:window-width="1511"
     inkscape:window-height="1245"
     id="namedview48"
     showgrid="false"
     inkscape:zoom="0.93333333"
     inkscape:cx="540"
     inkscape:cy="540"
     inkscape:window-x="0"
     inkscape:window-y="25"
     inkscape:window-maximized="0"
     inkscape:current-layer="svg46" />
  <defs
     id="defs12">
    <style
       id="style10">
      .cls-1 {
        fill: #fff;
      }

      .cls-2 {
        fill: #ecf9f9;
      }

      .cls-3 {
        fill: #e76666;
      }

      .cls-4 {
        stroke: #fff;
        stroke-miterlimit: 10;
        stroke-width: .85px;
      }

      .cls-4, .cls-5 {
        fill: none;
      }

      .cls-6 {
        fill: #dcf9f9;
      }

      .cls-7 {
        fill: #bf5656;
      }

      .cls-8 {
        fill: #c6d8af;
      }
    </style>
  </defs>
  <g
     id="Layer_2"
     data-name="Layer 2">
    <path
       class="cls-2"
       d="M803.43,198.31v47.31c0,3.39,1.3,6.65,3.63,9.11l64.46,68.13c5.24,5.54,8.16,12.88,8.16,20.51V999.24c0,33.92-145.69,61.42-325.39,61.42s-325.38-27.5-325.38-61.42V343.37c0-7.63,2.92-14.96,8.16-20.5l64.45-68.13c2.33-2.46,3.63-5.72,3.63-9.11v-47.72"
       id="path14" />
    <path
       class="cls-3"
       d="M690.99,460.18c-178.12-9.03-74.93,181.12-191.12,303.01-107.07,112.32-227.85,142.16-183.32,174.22,49.41,35.57,295.66,54.46,421.25-183.32,111.08-210.31,36.03-289.71-46.81-293.91Z"
       id="path16" />
    <path
       class="cls-7"
       d="M737.8,754.09c-125.59,237.78-371.84,218.89-421.25,183.33-4.33-3.11-7.09-6.2-8.45-9.36,174.01,19.4,284.41-43.27,313.72-67.25,198.75-162.61,172.24-290.08,170.95-303.94,4.97,46.1-9.19,110.54-54.97,197.22Z"
       id="path18" />
    <path
       class="cls-2"
       d="M803.89,79.29c0,20.93-111.74,37.88-249.59,37.88s-249.59-16.96-249.59-37.88,111.74-37.9,249.59-37.9,249.59,16.96,249.59,37.9Z"
       id="path20" />
    <path
       class="cls-6"
       d="M822.62,177.28c0,32.69-120.12,50.97-268.32,50.97s-268.33-18.28-268.33-50.97c0-8.59,6.79-15.13,19.11-20.12,.07,.18,.14,.35,.22,.53,8.83,19.72,116.93,35.28,249,35.28s240.15-15.56,249-35.28c.08-.18,.15-.35,.21-.53,12.34,4.99,19.11,11.54,19.11,20.12Z"
       id="path22" />
    <path
       class="cls-2"
       d="M803.5,157.16c-.05,.18-.13,.35-.21,.53-8.84,19.72-116.93,35.28-249,35.28s-240.17-15.56-249-35.28c-.08-.18-.15-.35-.22-.53h498.42Z"
       id="path24" />
    <path
       class="cls-7"
       d="M554.6,157.69h-.6v-2.62c0,.88,.2,1.76,.6,2.62Z"
       id="path26" />
    <path
       class="cls-2"
       d="M803.89,79.29v75.78c0,.7-.12,1.4-.39,2.09-.05,.18-.13,.35-.21,.53-8.84,19.72-116.93,35.28-249,35.28s-240.17-15.56-249-35.28c-.08-.18-.15-.35-.22-.53-.25-.69-.37-1.39-.37-2.09V79.29c0,20.93,111.74,37.88,249.59,37.88s249.59-16.96,249.59-37.88Z"
       id="path28" />
    <path
       class="cls-7"
       d="M838.36,155.07v2.62h-.6c.4-.86,.6-1.74,.6-2.62Z"
       id="path30" />
    <path
       class="cls-1"
       d="M345.73,300c-5.78,0-50.14,18.41-59.76,44.68s-11.72,102.62-5.41,105.97,24.72-58.29,42.31-84.42c27.59-40.99,61.49-66.23,22.86-66.23Z"
       id="path32" />
  </g>
  <g
     id="Layer_3"
     data-name="Layer 3">
    <path
       class="cls-8"
       d="M693.43,451.8c-30.89-4.37-86.29,1.11-108.54,61.74,22.1-20.35,36.93-20.8,38.42-19.99,8.01,4.39,17.65,36.39,25.59,38.42,4.83,1.23,38.67-21.54,46.66-20.06,5.77,1.07,22.8,32.57,28.96,33.16,6.69,.64,33.22-22.95,39.14-22.35,13.22,1.32,28.99,33.05,28.99,33.05,0,0,17.41-87.47-99.23-103.96Z"
       id="path35" />
    <path
       class="cls-8"
       d="M559.3,314.12s-1.78,31.98,4.44,36.42c6.22,4.44,60.13-48.83,94.61,23.14,30.62,63.91-20.89,90.56-20.89,90.56l101.26,15.1s-44.41-238.95-179.43-165.22Z"
       id="path37" />
    <path
       class="cls-1"
       d="M582.6,642.56c-14.66,115.25-68.09,137.39-89.42,155.08-12.14,10.07,65.97-19.8,81.72-73.43,20.69-70.44,10.47-103.41,7.7-81.65Z"
       id="path39" />
    <path
       class="cls-5"
       d="M550.74,724.38c-4.04,11.51-8.17,23.18-15.25,33.12-11.4,16.01-29.22,25.91-45.64,36.7-2.72,1.79-5.53,3.74-6.96,6.66-1.44,2.92-.9,7.07,1.98,8.59,1.33,.7,2.9,.74,4.4,.68,5.62-.2,11.14-1.42,16.63-2.64,7.26-1.61,14.52-3.22,21.73-5.06,5.01-1.28,10.03-2.69,14.57-5.17,6.46-3.54,11.6-9.09,15.99-15.01,10.68-14.43,17.46-31.36,22.9-48.46,6.73-21.17,11.59-42.94,14.49-64.96,1.61-12.21,2.58-24.92-1.35-36.6-.22-.66-.48-1.34-1.03-1.77-.59-.46-1.4-.53-2.15-.46-10.09,.89-14.01,19.6-16.66,27.12l-15.19,43.22-8.45,24.05Z"
       id="path41" />
    <path
       class="cls-4"
       d="M792.65,555.77s0,.04,.02,.14c0,.03,0,.08,.02,.14s.02,.14,.03,.23c.02,.16,.03,.35,.06,.59"
       id="path43" />
  </g>
</svg>
